{
	"asset":{
		"generator":"Khronos glTF Blender I/O v3.6.28",
		"version":"2.0"
	},
	"extensionsUsed":[
		"KHR_materials_clearcoat"
	],
	"scene":0,
	"scenes":[
		{
			"name":"Scene",
			"nodes":[
				0,
				1,
				2,
				3,
				4,
				5,
				6,
				7,
				8
			]
		}
	],
	"nodes":[
		{
			"mesh":0,
			"name":"Plane",
			"rotation":[
				-0.7071068286895752,
				0,
				0.7071068286895752,
				1.9949604279645428e-07
			],
			"scale":[
				1.2884904146194458,
				1.0861835479736328,
				3.7446377277374268
			],
			"translation":[
				-0.06763827800750732,
				1.280683994293213,
				-0.018822669982910156
			]
		},
		{
			"mesh":1,
			"name":"Plane.001",
			"rotation":[
				-0.5000000596046448,
				-0.5,
				0.5,
				0.5
			],
			"scale":[
				1.2884904146194458,
				1.0861835479736328,
				3.7446377277374268
			],
			"translation":[
				-0.06763851642608643,
				-0.15421846508979797,
				1.3341041803359985
			]
		},
		{
			"mesh":2,
			"name":"Plane.002",
			"rotation":[
				0.5000000596046448,
				-0.5,
				-0.5,
				0.5
			],
			"scale":[
				1.2884904146194458,
				1.0861835479736328,
				3.7446377277374268
			],
			"translation":[
				-0.06763875484466553,
				-0.11623571068048477,
				-1.4474562406539917
			]
		},
		{
			"mesh":3,
			"name":"Plane.004",
			"rotation":[
				0.5000002384185791,
				0.4999998211860657,
				-0.5000001788139343,
				0.4999998211860657
			],
			"scale":[
				1.2884904146194458,
				1.0861835479736328,
				3.7446377277374268
			],
			"translation":[
				-4.086233615875244,
				-0.14909885823726654,
				-0.016676604747772217
			]
		},
		{
			"mesh":4,
			"name":"Plane.005",
			"rotation":[
				-0.5,
				0.5,
				0.5,
				0.5
			],
			"scale":[
				1.2705533504486084,
				1.2705533504486084,
				1.2705533504486084
			],
			"translation":[
				4.021122932434082,
				-0.09456129372119904,
				-0.024652540683746338
			]
		},
		{
			"mesh":5,
			"name":"Cylinder",
			"rotation":[
				-0.7071068286895752,
				0,
				0.7071068286895752,
				1.9949604279645428e-07
			],
			"scale":[
				0.03882535547018051,
				1.2690136432647705,
				0.03882535547018051
			],
			"translation":[
				4.123945236206055,
				-0.11638912558555603,
				0.33180689811706543
			]
		},
		{
			"mesh":6,
			"name":"Cylinder.001",
			"rotation":[
				-0.7071068286895752,
				0,
				0.7071068286895752,
				1.9949604279645428e-07
			],
			"scale":[
				0.03882535547018051,
				1.2690136432647705,
				0.03882535547018051
			],
			"translation":[
				4.123945236206055,
				-0.11638912558555603,
				0.8367980718612671
			]
		},
		{
			"mesh":7,
			"name":"Cylinder.002",
			"rotation":[
				0,
				-0.7071068286895752,
				0,
				0.7071068286895752
			],
			"scale":[
				0.03882535547018051,
				1.2690136432647705,
				0.03882535547018051
			],
			"translation":[
				4.123945236206055,
				-0.11638912558555603,
				-0.3604699373245239
			]
		},
		{
			"mesh":8,
			"name":"Cylinder.003",
			"rotation":[
				0,
				-0.7071068286895752,
				0,
				0.7071068286895752
			],
			"scale":[
				0.03882535547018051,
				1.2690136432647705,
				0.03882535547018051
			],
			"translation":[
				4.123945236206055,
				-0.11638912558555603,
				-0.8654611110687256
			]
		}
	],
	"materials":[
		{
			"doubleSided":true,
			"extensions":{
				"KHR_materials_clearcoat":{
					"clearcoatFactor":0.12844036519527435,
					"clearcoatRoughnessFactor":0.22266055643558502
				}
			},
			"name":"Material",
			"pbrMetallicRoughness":{
				"baseColorFactor":[
					0.9130991101264954,
					0.010959867388010025,
					0.015208539552986622,
					1
				],
				"metallicFactor":0.7064220309257507,
				"roughnessFactor":0.857798159122467
			}
		},
		{
			"doubleSided":true,
			"name":"metal",
			"pbrMetallicRoughness":{
				"baseColorFactor":[
					0.4958469569683075,
					0.4958469569683075,
					0.4958469569683075,
					1
				],
				"metallicFactor":0.4587155878543854,
				"roughnessFactor":0.5
			}
		}
	],
	"meshes":[
		{
			"name":"Plane",
			"primitives":[
				{
					"attributes":{
						"POSITION":0,
						"NORMAL":1,
						"TEXCOORD_0":2
					},
					"indices":3,
					"material":0
				}
			]
		},
		{
			"name":"Plane.001",
			"primitives":[
				{
					"attributes":{
						"POSITION":4,
						"NORMAL":5,
						"TEXCOORD_0":6
					},
					"indices":3,
					"material":0
				}
			]
		},
		{
			"name":"Plane.002",
			"primitives":[
				{
					"attributes":{
						"POSITION":7,
						"NORMAL":8,
						"TEXCOORD_0":9
					},
					"indices":3,
					"material":0
				}
			]
		},
		{
			"name":"Plane.004",
			"primitives":[
				{
					"attributes":{
						"POSITION":10,
						"NORMAL":11,
						"TEXCOORD_0":12
					},
					"indices":13,
					"material":0
				}
			]
		},
		{
			"name":"Plane.005",
			"primitives":[
				{
					"attributes":{
						"POSITION":14,
						"NORMAL":15,
						"TEXCOORD_0":16
					},
					"indices":17,
					"material":0
				}
			]
		},
		{
			"name":"Cylinder",
			"primitives":[
				{
					"attributes":{
						"POSITION":18,
						"NORMAL":19,
						"TEXCOORD_0":20
					},
					"indices":21,
					"material":1
				}
			]
		},
		{
			"name":"Cylinder.001",
			"primitives":[
				{
					"attributes":{
						"POSITION":22,
						"NORMAL":23,
						"TEXCOORD_0":24
					},
					"indices":21,
					"material":1
				}
			]
		},
		{
			"name":"Cylinder.002",
			"primitives":[
				{
					"attributes":{
						"POSITION":25,
						"NORMAL":26,
						"TEXCOORD_0":27
					},
					"indices":21,
					"material":1
				}
			]
		},
		{
			"name":"Cylinder.003",
			"primitives":[
				{
					"attributes":{
						"POSITION":28,
						"NORMAL":29,
						"TEXCOORD_0":30
					},
					"indices":21,
					"material":1
				}
			]
		}
	],
	"accessors":[
		{
			"bufferView":0,
			"componentType":5126,
			"count":412,
			"max":[
				1,
				0,
				1
			],
			"min":[
				-1,
				-0.11554119735956192,
				-1
			],
			"type":"VEC3"
		},
		{
			"bufferView":1,
			"componentType":5126,
			"count":412,
			"type":"VEC3"
		},
		{
			"bufferView":2,
			"componentType":5126,
			"count":412,
			"type":"VEC2"
		},
		{
			"bufferView":3,
			"componentType":5123,
			"count":618,
			"type":"SCALAR"
		},
		{
			"bufferView":4,
			"componentType":5126,
			"count":412,
			"max":[
				1,
				0,
				1
			],
			"min":[
				-1,
				-0.11554119735956192,
				-1
			],
			"type":"VEC3"
		},
		{
			"bufferView":5,
			"componentType":5126,
			"count":412,
			"type":"VEC3"
		},
		{
			"bufferView":6,
			"componentType":5126,
			"count":412,
			"type":"VEC2"
		},
		{
			"bufferView":7,
			"componentType":5126,
			"count":412,
			"max":[
				1,
				0,
				1
			],
			"min":[
				-1,
				-0.11554119735956192,
				-1
			],
			"type":"VEC3"
		},
		{
			"bufferView":8,
			"componentType":5126,
			"count":412,
			"type":"VEC3"
		},
		{
			"bufferView":9,
			"componentType":5126,
			"count":412,
			"type":"VEC2"
		},
		{
			"bufferView":10,
			"componentType":5126,
			"count":144,
			"max":[
				1.0016653537750244,
				0.05516503378748894,
				0.3223530054092407
			],
			"min":[
				-0.9983345866203308,
				-0.06037616357207298,
				-0.3729584813117981
			],
			"type":"VEC3"
		},
		{
			"bufferView":11,
			"componentType":5126,
			"count":144,
			"type":"VEC3"
		},
		{
			"bufferView":12,
			"componentType":5126,
			"count":144,
			"type":"VEC2"
		},
		{
			"bufferView":13,
			"componentType":5123,
			"count":216,
			"type":"SCALAR"
		},
		{
			"bufferView":14,
			"componentType":5126,
			"count":1212,
			"max":[
				1.2371184825897217,
				6.446167945861816,
				1.2144900560379028
			],
			"min":[
				-1.2266572713851929,
				-0.01920178160071373,
				-1.264841079711914
			],
			"type":"VEC3"
		},
		{
			"bufferView":15,
			"componentType":5126,
			"count":1212,
			"type":"VEC3"
		},
		{
			"bufferView":16,
			"componentType":5126,
			"count":1212,
			"type":"VEC2"
		},
		{
			"bufferView":17,
			"componentType":5123,
			"count":1872,
			"type":"SCALAR"
		},
		{
			"bufferView":18,
			"componentType":5126,
			"count":168,
			"max":[
				0.8660253882408142,
				1,
				1
			],
			"min":[
				-8.986627578735352,
				-1,
				-1
			],
			"type":"VEC3"
		},
		{
			"bufferView":19,
			"componentType":5126,
			"count":168,
			"type":"VEC3"
		},
		{
			"bufferView":20,
			"componentType":5126,
			"count":168,
			"type":"VEC2"
		},
		{
			"bufferView":21,
			"componentType":5123,
			"count":336,
			"type":"SCALAR"
		},
		{
			"bufferView":22,
			"componentType":5126,
			"count":168,
			"max":[
				0.8660253882408142,
				1,
				1
			],
			"min":[
				-8.986627578735352,
				-1,
				-1
			],
			"type":"VEC3"
		},
		{
			"bufferView":23,
			"componentType":5126,
			"count":168,
			"type":"VEC3"
		},
		{
			"bufferView":24,
			"componentType":5126,
			"count":168,
			"type":"VEC2"
		},
		{
			"bufferView":25,
			"componentType":5126,
			"count":168,
			"max":[
				0.8660253882408142,
				1,
				1
			],
			"min":[
				-8.986627578735352,
				-1,
				-1
			],
			"type":"VEC3"
		},
		{
			"bufferView":26,
			"componentType":5126,
			"count":168,
			"type":"VEC3"
		},
		{
			"bufferView":27,
			"componentType":5126,
			"count":168,
			"type":"VEC2"
		},
		{
			"bufferView":28,
			"componentType":5126,
			"count":168,
			"max":[
				0.8660253882408142,
				1,
				1
			],
			"min":[
				-8.986627578735352,
				-1,
				-1
			],
			"type":"VEC3"
		},
		{
			"bufferView":29,
			"componentType":5126,
			"count":168,
			"type":"VEC3"
		},
		{
			"bufferView":30,
			"componentType":5126,
			"count":168,
			"type":"VEC2"
		}
	],
	"bufferViews":[
		{
			"buffer":0,
			"byteLength":4944,
			"byteOffset":0,
			"target":34962
		},
		{
			"buffer":0,
			"byteLength":4944,
			"byteOffset":4944,
			"target":34962
		},
		{
			"buffer":0,
			"byteLength":3296,
			"byteOffset":9888,
			"target":34962
		},
		{
			"buffer":0,
			"byteLength":1236,
			"byteOffset":13184,
			"target":34963
		},
		{
			"buffer":0,
			"byteLength":4944,
			"byteOffset":14420,
			"target":34962
		},
		{
			"buffer":0,
			"byteLength":4944,
			"byteOffset":19364,
			"target":34962
		},
		{
			"buffer":0,
			"byteLength":3296,
			"byteOffset":24308,
			"target":34962
		},
		{
			"buffer":0,
			"byteLength":4944,
			"byteOffset":27604,
			"target":34962
		},
		{
			"buffer":0,
			"byteLength":4944,
			"byteOffset":32548,
			"target":34962
		},
		{
			"buffer":0,
			"byteLength":3296,
			"byteOffset":37492,
			"target":34962
		},
		{
			"buffer":0,
			"byteLength":1728,
			"byteOffset":40788,
			"target":34962
		},
		{
			"buffer":0,
			"byteLength":1728,
			"byteOffset":42516,
			"target":34962
		},
		{
			"buffer":0,
			"byteLength":1152,
			"byteOffset":44244,
			"target":34962
		},
		{
			"buffer":0,
			"byteLength":432,
			"byteOffset":45396,
			"target":34963
		},
		{
			"buffer":0,
			"byteLength":14544,
			"byteOffset":45828,
			"target":34962
		},
		{
			"buffer":0,
			"byteLength":14544,
			"byteOffset":60372,
			"target":34962
		},
		{
			"buffer":0,
			"byteLength":9696,
			"byteOffset":74916,
			"target":34962
		},
		{
			"buffer":0,
			"byteLength":3744,
			"byteOffset":84612,
			"target":34963
		},
		{
			"buffer":0,
			"byteLength":2016,
			"byteOffset":88356,
			"target":34962
		},
		{
			"buffer":0,
			"byteLength":2016,
			"byteOffset":90372,
			"target":34962
		},
		{
			"buffer":0,
			"byteLength":1344,
			"byteOffset":92388,
			"target":34962
		},
		{
			"buffer":0,
			"byteLength":672,
			"byteOffset":93732,
			"target":34963
		},
		{
			"buffer":0,
			"byteLength":2016,
			"byteOffset":94404,
			"target":34962
		},
		{
			"buffer":0,
			"byteLength":2016,
			"byteOffset":96420,
			"target":34962
		},
		{
			"buffer":0,
			"byteLength":1344,
			"byteOffset":98436,
			"target":34962
		},
		{
			"buffer":0,
			"byteLength":2016,
			"byteOffset":99780,
			"target":34962
		},
		{
			"buffer":0,
			"byteLength":2016,
			"byteOffset":101796,
			"target":34962
		},
		{
			"buffer":0,
			"byteLength":1344,
			"byteOffset":103812,
			"target":34962
		},
		{
			"buffer":0,
			"byteLength":2016,
			"byteOffset":105156,
			"target":34962
		},
		{
			"buffer":0,
			"byteLength":2016,
			"byteOffset":107172,
			"target":34962
		},
		{
			"buffer":0,
			"byteLength":1344,
			"byteOffset":109188,
			"target":34962
		}
	],
	"buffers":[
		{
			"byteLength":110532,
			"uri":"cargo.bin"
		}
	]
}
